<svg width="45" height="31" viewBox="0 0 45 31" fill="none" xmlns="http://www.w3.org/2000/svg">
<path fill-rule="evenodd" clip-rule="evenodd" d="M22.5 0C16.5 0 12.75 3.44444 11.25 10.3333C13.5 6.88889 16.125 5.59722 19.125 6.45833C20.8367 6.94917 22.06 8.37574 23.4142 9.95349C25.62 12.5244 28.1733 15.5 33.75 15.5C39.75 15.5 43.5 12.0556 45 5.16667C42.75 8.61111 40.125 9.90278 37.125 9.04167C35.4133 8.55083 34.19 7.12426 32.8358 5.54651C30.63 2.97562 28.0767 0 22.5 0ZM11.25 15.5C5.25 15.5 1.5 18.9444 0 25.8333C2.25 22.3889 4.875 21.0972 7.875 21.9583C9.58667 22.4501 10.81 23.8757 12.1642 25.4535C14.37 28.0244 16.9233 31 22.5 31C28.5 31 32.25 27.5556 33.75 20.6667C31.5 24.1111 28.875 25.4028 25.875 24.5417C24.1633 24.0508 22.94 22.6243 21.5858 21.0465C19.38 18.4756 16.8267 15.5 11.25 15.5Z" fill="#A22873"/>
</svg>
