<svg width="40" height="40" viewBox="0 0 40 40" fill="none" xmlns="http://www.w3.org/2000/svg">
<circle cx="20" cy="20" r="20" fill="#A22873"/>
<path d="M29 26.1314C29 26.3915 28.9547 26.6345 28.864 26.8604C28.7733 27.0863 28.6443 27.2847 28.4769 27.4559C28.3095 27.627 28.1142 27.7604 27.891 27.8563C27.6678 27.9521 27.4236 28 27.1586 28H11.967C11.7019 28 11.4508 27.9521 11.2137 27.8563C10.9765 27.7604 10.7673 27.627 10.5859 27.4559C10.4046 27.2847 10.2616 27.0863 10.1569 26.8604C10.0523 26.6345 10 26.3915 10 26.1314V15.8851C10 15.365 10.1848 14.9235 10.5545 14.5607C10.9242 14.198 11.3741 14.0166 11.9042 14.0166H27.0958C27.6259 14.0166 28.0758 14.198 28.4455 14.5607C28.8152 14.9235 29 15.365 29 15.8851V18.6777H24.25C23.7199 18.6777 23.27 18.8557 22.9003 19.2116C22.5307 19.5675 22.3458 20.0056 22.3458 20.5257C22.3598 20.8817 22.4365 21.1965 22.576 21.4703C22.6876 21.703 22.8724 21.9152 23.1305 22.1068C23.3886 22.2985 23.7617 22.3943 24.25 22.3943H29V26.1314ZM26.1542 13.072H16.6542C17.4075 12.6887 18.1189 12.3191 18.7885 11.9632C19.3744 11.6621 19.9534 11.3609 20.5253 11.0597C21.0973 10.7586 21.5437 10.5259 21.8645 10.3616C22.3528 10.1015 22.7887 9.98172 23.1724 10.0023C23.556 10.0228 23.8803 10.0878 24.1454 10.1973C24.4523 10.3479 24.7173 10.5464 24.9405 10.7928L26.1542 13.072ZM23.3084 20.5257C23.3084 20.2657 23.399 20.0466 23.5804 19.8687C23.7617 19.6907 23.9849 19.6017 24.25 19.6017C24.515 19.6017 24.7383 19.6907 24.9196 19.8687C25.101 20.0466 25.1916 20.2657 25.1916 20.5257C25.1916 20.7858 25.101 21.0083 24.9196 21.1931C24.7383 21.3779 24.515 21.4703 24.25 21.4703C23.9849 21.4703 23.7617 21.3779 23.5804 21.1931C23.399 21.0083 23.3084 20.7858 23.3084 20.5257Z" fill="white"/>
</svg>
